<?xml version="1.0" encoding="UTF-8"?>
<svg width="14px" height="14px" viewBox="0 0 14 14" version="1.1" xmlns="http://www.w3.org/2000/svg" xmlns:xlink="http://www.w3.org/1999/xlink">
    <!-- Generator: Sketch 50.2 (55047) - http://www.bohemiancoding.com/sketch -->
    <title>deposit</title>
    <desc>Created with Sketch.</desc>
    <defs>
        <linearGradient x1="50%" y1="0%" x2="50%" y2="100%" id="linearGradient-1">
            <stop stop-color="#0395BD" offset="0%"></stop>
            <stop stop-color="#01DCBD" offset="100%"></stop>
        </linearGradient>
    </defs>
    <g id="Symbols" stroke="none" stroke-width="1" fill="none" fill-rule="evenodd">
        <g id="menu/deposit" transform="translate(-1.000000, -1.000000)" fill="url(#linearGradient-1)" fill-rule="nonzero">
            <g id="Group-4" transform="translate(1.000000, 1.000000)">
                <g id="Group">
                    <path d="M12.1355413,0 L1.83709504,0 C0.822210744,0 0,0.822384298 0,1.83692149 L0,12.1360041 C0,13.1505992 0.822210744,13.9729256 1.83709504,13.9729256 L12.1355413,13.9729256 C13.1504256,13.9729256 13.9729545,13.1505992 13.9729545,12.1360041 L13.9729545,1.83692149 C13.9729256,0.822384298 13.1504256,0 12.1355413,0 Z M12.6919545,11.3530165 C12.6919545,12.0914587 12.0910826,12.6920992 11.3527851,12.6920992 L2.61985124,12.6920992 C1.88158264,12.6920992 1.28068182,12.0914587 1.28068182,11.3530165 L1.28068182,2.61990909 C1.28068182,1.88146694 1.88155372,1.2808843 2.61985124,1.2808843 L11.3527851,1.2808843 C12.0910537,1.2808843 12.6919545,1.88146694 12.6919545,2.61990909 L12.6919545,11.3530165 Z" id="XMLID_106_"></path>
                    <path d="M11.3527851,2.21237603 L2.61985124,2.21237603 C2.3951281,2.21237603 2.21231818,2.3952438 2.21231818,2.61990909 L2.21231818,11.3530165 C2.21231818,11.5777107 2.3951281,11.7605785 2.61985124,11.7605785 L11.3527851,11.7605785 C11.5774215,11.7605785 11.7605785,11.5777107 11.7605785,11.3530165 L11.7605785,2.61990909 C11.7605785,2.3952438 11.5774215,2.21237603 11.3527851,2.21237603 Z M10.4822975,7.45222314 L9.75363223,7.45222314 C9.68102893,7.88636777 9.50895041,8.28640909 9.26047934,8.62897521 L9.77957851,9.14813223 C9.96146281,9.33013223 9.96146281,9.62485537 9.77957851,9.8067686 C9.68857851,9.8977686 9.56931818,9.94323967 9.4502314,9.94323967 C9.33097107,9.94323967 9.2118843,9.8977686 9.12097107,9.8067686 L8.59770661,9.28370661 C8.25540083,9.52480165 7.85689256,9.68970661 7.42581405,9.75762397 L7.42581405,10.5088223 C7.42581405,10.7660289 7.21746281,10.9745826 6.95985124,10.9745826 C6.70241322,10.9745826 6.49414876,10.7660289 6.49414876,10.5088223 L6.49414876,9.74966942 C6.07027273,9.67417355 5.68000826,9.50383058 5.34429752,9.26071074 L4.7985,9.80653719 C4.7075,9.89753719 4.58818182,9.94300826 4.46909504,9.94300826 C4.35009504,9.94300826 4.23074793,9.89753719 4.13986364,9.80653719 C3.95795041,9.62459504 3.95795041,9.3298719 4.13986364,9.14790083 L4.68921901,8.5984876 C4.45278099,8.26277686 4.28990083,7.87346694 4.21894628,7.45222314 L3.43763636,7.45222314 C3.18005372,7.45222314 2.97170248,7.24366942 2.97170248,6.98646281 C2.97170248,6.7292562 3.18005372,6.52070248 3.43763636,6.52070248 L4.21894628,6.52070248 C4.28990083,6.09971901 4.45278099,5.7106405 4.68921901,5.37495868 L4.13986364,4.82545868 C3.95795041,4.64354545 3.95795041,4.34879339 4.13986364,4.16685124 C4.32163223,3.98493802 4.61655785,3.98493802 4.7985,4.16685124 L5.34374793,4.71244628 C5.68000826,4.46932645 6.0702438,4.2990124 6.49414876,4.2234876 L6.49414876,3.46413223 C6.49414876,3.20692562 6.70241322,2.9983719 6.95985124,2.9983719 C7.21746281,2.9983719 7.42581405,3.20692562 7.42581405,3.46413223 L7.42581405,4.21556198 C7.85686364,4.28353719 8.25540083,4.44841322 8.59819835,4.6897686 L9.12143388,4.16644628 C9.30326033,3.98453306 9.59795455,3.98453306 9.78004132,4.16644628 C9.96195455,4.3483595 9.96195455,4.64311157 9.78004132,4.82508264 L9.26045041,5.3445 C9.50892149,5.68697934 9.68050826,6.08684711 9.75360331,6.5207314 L10.4822686,6.5207314 C10.7396488,6.5207314 10.948,6.72928512 10.948,6.98649174 C10.948,7.24366942 10.7396777,7.45222314 10.4822975,7.45222314 Z" id="XMLID_103_"></path>
                    <path d="M6.98631818,5.10907438 C5.95121488,5.10907438 5.10878512,5.95147521 5.10878512,6.98669421 C5.10878512,8.02191322 5.95121488,8.86408264 6.98631818,8.86408264 C8.02165289,8.86408264 8.86402479,8.02191322 8.86402479,6.98669421 C8.86402479,5.95147521 8.02165289,5.10907438 6.98631818,5.10907438 Z M6.98631818,7.73242562 C6.5742438,7.73242562 6.24035537,7.39859504 6.24035537,6.98669421 C6.24035537,6.57459091 6.5742438,6.24076033 6.98631818,6.24076033 C7.39839256,6.24076033 7.73228099,6.57459091 7.73228099,6.98669421 C7.73228099,7.39859504 7.39839256,7.73242562 6.98631818,7.73242562 Z" id="XMLID_100_"></path>
                </g>
            </g>
        </g>
    </g>
</svg>