<?xml version="1.0" encoding="UTF-8"?>
<svg width="16px" height="12px" viewBox="0 0 16 12" version="1.1" xmlns="http://www.w3.org/2000/svg" xmlns:xlink="http://www.w3.org/1999/xlink">
    <!-- Generator: Sketch 50.2 (55047) - http://www.bohemiancoding.com/sketch -->
    <title>partners</title>
    <desc>Created with Sketch.</desc>
    <defs>
        <linearGradient x1="50%" y1="0%" x2="50%" y2="100%" id="linearGradient-1">
            <stop stop-color="#0395BD" offset="0%"></stop>
            <stop stop-color="#01DCBD" offset="100%"></stop>
        </linearGradient>
    </defs>
    <g id="Symbols" stroke="none" stroke-width="1" fill="none" fill-rule="evenodd">
        <g id="menu/partner" transform="translate(0.000000, -2.000000)" fill="url(#linearGradient-1)" fill-rule="nonzero">
            <g id="Group-5" transform="translate(0.000000, 2.000000)">
                <path d="M16,1.48805522 L16,6.51266416 C16,6.51266416 14.9634036,6.72452629 14.7498537,6.75239055 C14.5369818,6.78018783 13.8680204,7.00427406 13.3831993,6.52083589 C12.6355327,5.77744293 9.9790889,3.03679891 9.9790889,3.03679891 C9.9790889,3.03679891 9.52106242,2.57054146 8.78563098,2.9735015 C8.11053585,3.34263593 7.10980546,3.88361113 6.69180948,4.0942676 C5.90162664,4.53058437 5.24670818,3.83833171 5.24670818,3.31102072 C5.24670818,2.90199886 5.49273438,2.62439449 5.84442176,2.42023522 C6.79753522,1.82081876 8.80642102,0.651022288 9.64312319,0.18982193 C10.1517043,-0.0907966013 10.5181449,-0.11484292 11.2163867,0.495391029 C12.0763324,1.24568306 12.8416253,1.92959654 12.8416253,1.92959654 C12.8416253,1.92959654 13.0912349,2.14571199 13.4893124,2.05866968 C14.4668316,1.84426225 16,1.48805522 16,1.48805522 Z M5.42665176,10.0017582 C5.55529819,9.65888049 5.51229768,9.27537855 5.2656581,9.01227565 C5.04403759,8.77693654 4.72046842,8.71491177 4.41194297,8.78825639 C4.49823454,8.4707981 4.45058533,8.13291048 4.22777036,7.89445673 C4.00547191,7.65972045 3.68251611,7.59645653 3.37402294,7.67047096 C3.45966886,7.35348154 3.41214877,7.01562741 3.18920468,6.77787697 C2.84009991,6.40639818 2.23625263,6.42233975 1.83956322,6.81461626 C1.44497218,7.20742862 1.19219889,7.91910588 1.54437051,8.33800749 C1.89596103,8.75479919 2.29994633,8.50120765 2.60792297,8.42839888 C2.52224478,8.7453883 2.26553301,9.04024038 2.58167717,9.4551566 C2.89753078,9.87027376 3.3372207,9.61842373 3.64552017,9.54628478 C3.55955143,9.86206854 3.31404175,10.1865264 3.61804763,10.571234 C3.92479753,10.9571138 4.42721267,10.7515144 4.75904621,10.6445786 C4.63098087,10.9861502 4.35686874,11.3543469 4.70904036,11.7669523 C5.06066317,12.1825383 5.87325018,11.9902682 6.27016557,11.5973889 C6.66601563,11.2045765 6.70401233,10.582018 6.35584377,10.209367 C6.11546703,9.95369908 5.75712943,9.89421961 5.42665176,10.0017582 Z M12.6690744,7.38767554 C9.79979097,4.4109891 11.1493679,5.81167042 9.60525562,4.20632746 C9.60525562,4.20632746 9.14119228,3.72704213 8.52956487,4.00545027 C8.1002054,4.20063404 7.54742929,4.46665063 7.13149941,4.6697382 C6.67444141,4.91837312 6.34551331,4.99533474 6.19107304,4.99426304 C5.30749644,4.9882682 4.59062753,4.25150641 4.59062753,3.33577034 C4.59062753,2.7417124 4.89463341,2.2245156 5.34804347,1.93093617 C5.98562614,1.47321884 7.45319619,0.663413845 7.45319619,0.663413845 C7.45319619,0.663413845 7.00611353,0.0756856423 6.02672198,0.0756856423 C5.04762097,0.0756856423 3.00199749,1.46595136 3.00199749,1.46595136 C3.00199749,1.46595136 2.42168427,1.85156322 1.59444092,1.50423123 L0,0.928224768 L0,6.67780677 C0,6.67780677 0.455282453,6.81451579 0.86436841,6.98786362 C0.956761403,6.71451257 1.10584276,6.46209321 1.31264552,6.25361363 C1.99132403,5.58299596 3.11624585,5.5760299 3.73371642,6.23562913 C3.91972915,6.43613792 4.04953775,6.67532846 4.11578179,6.9397375 C4.3645843,7.01941186 4.5899496,7.16054165 4.77105536,7.35411786 C4.95761689,7.55328702 5.08694126,7.79381719 5.1537341,8.0568866 C5.40224607,8.13662794 5.62728854,8.27829358 5.80900767,8.47200376 C6.0136475,8.69093243 6.1499772,8.95537496 6.21363862,9.24188785 C6.47341724,9.32039004 6.7081768,9.46644296 6.89725638,9.66698524 C7.26834563,10.0624099 7.40005892,10.5988973 7.32025616,11.1163955 C7.32090182,11.1163955 7.32212856,11.1163955 7.32270965,11.1175677 C7.32877879,11.1258064 7.5526268,11.3846895 7.69221705,11.5307089 C7.96578037,11.814777 8.41247564,11.814777 8.68687831,11.5307089 C8.95947315,11.2467413 8.96066761,10.7842348 8.68687831,10.4988271 C8.67706438,10.4886794 7.69993261,9.42836404 7.77857319,9.34614439 C7.85663268,9.26449407 9.10154916,10.6083417 9.12472812,10.6329239 C9.39793633,10.9164226 9.84434105,10.9164226 10.118776,10.6329239 C10.3925653,10.3489563 10.3919842,9.88644976 10.118776,9.60171188 C10.1053464,9.58844956 10.0493037,9.53275454 10.0285137,9.5105837 C10.0285137,9.5105837 8.79421817,8.36989063 8.88816074,8.27243271 C8.98326547,8.17437196 10.5164339,9.65867955 10.5189197,9.65867955 C10.7945168,9.91615601 11.2190339,9.91424704 11.4841714,9.639054 C11.7421422,9.37146335 11.7476625,8.94817446 11.5189721,8.66293421 C11.5141297,8.64776293 10.3505333,7.38623544 10.4413444,7.29132281 C10.5334791,7.19517102 11.6848405,8.4250833 11.6872617,8.42762859 C11.9598565,8.71106034 12.4068746,8.71106034 12.6813095,8.42762859 C12.9545178,8.14416335 12.9545178,7.68108751 12.6813095,7.39511047 C12.677597,7.39269914 12.6727224,7.39015385 12.6690744,7.38767554 Z" id="Shape"></path>
            </g>
        </g>
    </g>
</svg>