<?xml version="1.0" encoding="UTF-8"?>
<svg width="14px" height="14px" viewBox="0 0 14 14" version="1.1" xmlns="http://www.w3.org/2000/svg" xmlns:xlink="http://www.w3.org/1999/xlink">
    <!-- Generator: Sketch 50.2 (55047) - http://www.bohemiancoding.com/sketch -->
    <title>settings</title>
    <desc>Created with Sketch.</desc>
    <defs>
        <linearGradient x1="50%" y1="0%" x2="50%" y2="100%" id="linearGradient-1">
            <stop stop-color="#0395BD" offset="0%"></stop>
            <stop stop-color="#01DCBD" offset="100%"></stop>
        </linearGradient>
    </defs>
    <g id="Symbols" stroke="none" stroke-width="1" fill="none" fill-rule="evenodd">
        <g id="menu/settings" transform="translate(-1.000000, -1.000000)" fill="url(#linearGradient-1)" fill-rule="nonzero">
            <g id="Group" transform="translate(1.000000, 1.000000)">
                <path d="M13.9097845,6.26258621 C13.8877586,6.06646552 13.6589914,5.91892241 13.461181,5.91892241 C12.8218879,5.91892241 12.2545259,5.54369828 12.0165862,4.96293966 C11.7736983,4.36824138 11.9304138,3.67481897 12.4067155,3.23786207 C12.5567328,3.10069828 12.5750172,2.87102586 12.4492586,2.71159483 C12.1219483,2.29606034 11.7501034,1.92065517 11.3439828,1.59533621 C11.1850948,1.46788793 10.9516207,1.48562931 10.8137328,1.63824138 C10.3978966,2.0987931 9.65088793,2.26993103 9.07362931,2.02909483 C8.47313793,1.77643103 8.09411207,1.16773276 8.13134483,0.51437931 C8.14359483,0.309025862 7.9934569,0.130586207 7.78882759,0.10675 C7.26762931,0.0464051724 6.74184483,0.0446551724 6.21913793,0.102646552 C6.01710345,0.124974138 5.86708621,0.299189655 5.87378448,0.501948276 C5.89641379,1.14890517 5.51310345,1.74686207 4.91840517,1.99047414 C4.34808621,2.22346552 3.60626724,2.05359483 3.19127586,1.59708621 C3.05411207,1.4467069 2.82474138,1.42824138 2.66476724,1.55297414 C2.24669828,1.88106897 1.86646552,2.25671552 1.53613793,2.66887069 C1.40742241,2.82908621 1.42643103,3.0612931 1.57771552,3.19893966 C2.06343103,3.6387931 2.22002586,4.33818966 1.96784483,4.93982759 C1.72706897,5.51340517 1.13152586,5.88289655 0.449810345,5.88289655 C0.228586207,5.87577586 0.0711465517,6.02440517 0.0467068966,6.22559483 C-0.0146034483,6.74956897 -0.0152672414,7.28374138 0.04375,7.812 C0.0657758621,8.00896552 0.301301724,8.15524138 0.501284483,8.15524138 C1.1089569,8.1397931 1.69200862,8.51574138 1.93694828,9.11116379 C2.18068103,9.70586207 2.02378448,10.3989828 1.54669828,10.8365431 C1.39746552,10.9737069 1.37839655,11.2028362 1.50439655,11.3620862 C1.82838793,11.7750259 2.20059483,12.1506724 2.60792241,12.4787672 C2.76783621,12.6075431 3.00040517,12.5895 3.13901724,12.4367069 C3.55648276,11.975069 4.30337069,11.8042328 4.87827586,12.0455517 C5.48051724,12.2975517 5.85936207,12.9061897 5.82237069,13.5597241 C5.81024138,13.7650776 5.96074138,13.9440603 6.16464655,13.9673534 C6.43137069,13.9985517 6.69948276,14.014 6.96843966,14.014 C7.22369828,14.014 7.47901724,14.0000603 7.73433621,13.9716379 C7.93661207,13.9493103 8.08638793,13.7749138 8.07956897,13.5720948 C8.05621552,12.9254397 8.44037069,12.3274224 9.03434483,12.0842931 C9.60846552,11.8497931 10.3469655,12.0214138 10.7621983,12.4772586 C10.9000862,12.6273362 11.128069,12.6455603 11.2887069,12.5213103 C11.7060517,12.1940603 12.0855603,11.8185948 12.4173362,11.4053534 C12.5461724,11.2454397 12.5278879,11.012931 12.3757586,10.8750431 C11.8901638,10.4354914 11.7327241,9.7357931 11.9849052,9.13475862 C12.2219397,8.56890517 12.7953362,8.18897414 13.4120603,8.18897414 L13.4983534,8.19126724 C13.6985776,8.2075 13.882569,8.05331897 13.9067672,7.84905172 C13.9683793,7.32459483 13.9690431,6.79102586 13.9097845,6.26258621 Z M6.97682759,11.0593966 C4.75535345,11.0593966 2.95460345,9.25864655 2.95460345,7.03723276 C2.95460345,4.81581897 4.75541379,3.01506897 6.97682759,3.01506897 C9.19824138,3.01506897 10.9990517,4.81581897 10.9990517,7.03723276 C10.9990517,7.79124138 10.7911638,8.49649138 10.4301207,9.09957759 L8.66889655,7.3382931 C8.79640517,7.03765517 8.86375,6.71173276 8.86368966,6.37537069 C8.86368966,5.7167069 8.60716379,5.09750862 8.14136207,4.63182759 C7.67568103,4.16614655 7.05648276,3.90968103 6.39793966,3.90968103 C6.17816379,3.90968103 5.95941379,3.93888793 5.74778448,3.99651724 C5.65509483,4.02180172 5.57930172,4.09819828 5.55462069,4.19106897 C5.52939655,4.28605172 5.55781897,4.38338793 5.6320431,4.45767241 C5.6320431,4.45767241 6.50155172,5.33387931 6.79247414,5.62474138 C6.82294828,5.65521552 6.82288793,5.72793103 6.81860345,5.75412069 L6.81588793,5.77325 C6.78656034,6.09307759 6.73001724,6.47699138 6.68337069,6.62453448 C6.67709483,6.63075 6.67118103,6.636 6.66478448,6.64239655 C6.65808621,6.64909483 6.65193103,6.65555172 6.64547414,6.66218966 C6.496,6.71016379 6.10617241,6.76737069 5.78127586,6.7964569 L5.78133621,6.7947069 L5.76673276,6.79838793 C5.76413793,6.79868966 5.75931034,6.79905172 5.75291379,6.79905172 C5.7177931,6.79905172 5.66613793,6.78921552 5.61918966,6.74232759 C5.31637931,6.43951724 4.48096552,5.61007759 4.48096552,5.61007759 C4.40601724,5.53537069 4.32913793,5.51968103 4.27790517,5.51968103 C4.15848276,5.51968103 4.05155172,5.60597414 4.01787931,5.72974138 C3.78790517,6.58078448 4.03169828,7.49621552 4.65427586,8.11885345 C5.12007759,8.58459483 5.73933621,8.84106034 6.398,8.84106034 C6.73436207,8.84106034 7.06028448,8.77377586 7.36086207,8.64626724 L9.14121552,10.4266207 C8.51616379,10.8265862 7.77392241,11.0593966 6.97682759,11.0593966 Z" id="Shape"></path>
            </g>
        </g>
    </g>
</svg>