<?xml version="1.0" encoding="UTF-8"?>
<svg width="16px" height="16px" viewBox="0 0 16 16" version="1.1" xmlns="http://www.w3.org/2000/svg" xmlns:xlink="http://www.w3.org/1999/xlink">
    <!-- Generator: Sketch 50.2 (55047) - http://www.bohemiancoding.com/sketch -->
    <title>withdraw</title>
    <desc>Created with Sketch.</desc>
    <defs>
        <linearGradient x1="50%" y1="0%" x2="50%" y2="100%" id="linearGradient-1">
            <stop stop-color="#0395BD" offset="0%"></stop>
            <stop stop-color="#01DCBD" offset="100%"></stop>
        </linearGradient>
    </defs>
    <g id="Symbols" stroke="none" stroke-width="1" fill="none" fill-rule="evenodd">
        <g id="menu/withdraw" fill="url(#linearGradient-1)" fill-rule="nonzero">
            <g id="Group-3" transform="translate(1.000000, 1.000000)">
                <path d="M13.5625,0.0004375 L0.4375,0.0004375 C0.196,0.0004375 0,0.1964375 0,0.4379375 L0,6.5629375 C0,6.8044375 0.196,7.0004375 0.4375,7.0004375 L2.04575,7.0004375 C2.394,6.3905625 2.627625,5.8008125 2.771125,5.2504375 L2.625,5.2504375 C2.142,5.2504375 1.75,4.8584375 1.75,4.3754375 L1.75,2.6254375 C1.75,2.1424375 2.142,1.7504375 2.625,1.7504375 L11.375,1.7504375 C11.858,1.7504375 12.25,2.1424375 12.25,2.6254375 L12.25,4.3754375 C12.25,4.7779375 11.972625,5.1016875 11.603375,5.2040625 C11.501,5.7719375 11.332125,6.3748125 11.08275,7.0004375 L13.5625,7.0004375 C13.804,7.0004375 14,6.8044375 14,6.5629375 L14,0.4379375 C14,0.1964375 13.804,0.0004375 13.5625,0.0004375 Z" id="Shape"></path>
                <path d="M10.810625,2.6254375 L3.803625,2.6254375 C3.9585,3.7629375 3.920875,5.6266875 2.68975,7.6470625 C0.447125,11.3255625 1.752625,13.6810625 1.808625,13.7799375 C1.8865,13.9155625 2.03175,13.9995625 2.188375,13.9995625 L8.313375,13.9995625 C8.46825,13.9995625 8.610875,13.9155625 8.689625,13.7825625 C8.768375,13.6495625 8.770125,13.4824375 8.694875,13.3468125 C8.649375,13.2654375 7.608125,11.3098125 9.562,8.1029375 C10.892875,5.9198125 10.97075,3.9186875 10.810625,2.6254375 Z M5.25,3.9379375 C5.25,3.6964375 5.446,3.5004375 5.6875,3.5004375 C5.929,3.5004375 6.125,3.6964375 6.125,3.9379375 L6.125,4.8129375 C6.125,5.0544375 5.929,5.2504375 5.6875,5.2504375 C5.446,5.2504375 5.25,5.0544375 5.25,4.8129375 L5.25,3.9379375 Z M7,11.8129375 C7,12.0544375 6.804,12.2504375 6.5625,12.2504375 C6.321,12.2504375 6.125,12.0544375 6.125,11.8129375 L6.125,10.9379375 C6.125,10.6964375 6.321,10.5004375 6.5625,10.5004375 C6.804,10.5004375 7,10.6964375 7,10.9379375 L7,11.8129375 Z M6.125,9.4066875 C5.401375,9.4066875 4.8125,8.7198125 4.8125,7.8754375 C4.8125,7.0310625 5.401375,6.3441875 6.125,6.3441875 C6.848625,6.3441875 7.4375,7.0310625 7.4375,7.8754375 C7.4375,8.7198125 6.848625,9.4066875 6.125,9.4066875 Z" id="Shape"></path>
            </g>
        </g>
    </g>
</svg>