<?xml version="1.0" encoding="UTF-8"?>
<svg width="36px" height="56px" viewBox="0 0 36 56" version="1.1" xmlns="http://www.w3.org/2000/svg" xmlns:xlink="http://www.w3.org/1999/xlink">
    <!-- Generator: Sketch 50.2 (55047) - http://www.bohemiancoding.com/sketch -->
    <title>btc</title>
    <desc>Created with Sketch.</desc>
    <defs>
        <linearGradient x1="50%" y1="0%" x2="50%" y2="100%" id="linearGradient-1">
            <stop stop-color="#0395BD" offset="0%"></stop>
            <stop stop-color="#01DCBD" offset="100%"></stop>
        </linearGradient>
    </defs>
    <g id="Symbols" stroke="none" stroke-width="1" fill="none" fill-rule="evenodd">
        <g id="btc" fill="url(#linearGradient-1)" fill-rule="nonzero">
            <path d="M34.5776103,29.3788502 C33.4203118,27.6965292 31.6739307,26.5409944 29.3385721,25.9129531 C32.3125054,24.2076463 33.6194338,21.3133282 33.2606157,17.229527 C33.1406601,15.7486555 32.7765992,14.4652256 32.167594,13.3773515 C31.5581694,12.2892415 30.7357818,11.4144865 29.6972854,10.7527327 C28.6596278,10.0901538 27.5310599,9.58576399 26.314203,9.23803089 C25.0970315,8.89029778 23.6996121,8.63780819 22.1228885,8.48091573 L22.1228885,0 L17.5129878,0 L17.5129878,8.24528234 C16.7147171,8.24528234 15.4973359,8.26767871 13.8609491,8.31258933 L13.8609491,0 L9.25041934,0 L9.25041934,8.48091573 C8.59160745,8.50342997 7.62378416,8.51486391 6.34653005,8.51486391 L0,8.48091573 L0,14.0003242 L3.32279005,14.0003242 C4.83964072,14.0003242 5.72777325,14.7633331 5.98718764,16.2887616 L5.98718764,25.9477264 C6.18704367,25.9477264 6.34653005,25.9592782 6.46638075,25.9816745 L5.98718764,25.9816745 L5.98718764,39.5101426 C5.82770127,40.6541255 5.24899956,41.2266475 4.25097767,41.2266475 L0.928397334,41.2266475 L0.000209712522,47.3855312 L5.98771192,47.3855312 C6.36697702,47.3855312 6.91548012,47.3911892 7.63426979,47.4013265 C8.35264003,47.4126426 8.89128664,47.4183006 9.25062905,47.4183006 L9.25062905,56 L13.8618928,56 L13.8618928,47.5192022 C14.6999041,47.5421879 15.9172853,47.5531503 17.5139315,47.5531503 L17.5139315,56 L22.1239371,56 L22.1239371,47.4183006 C23.7608481,47.3287151 25.2126879,47.1613317 26.4794564,46.913675 C27.746854,46.6660184 28.9596216,46.279622 30.1169201,45.7520107 C31.2741138,45.2251067 32.2419371,44.5684215 33.0201803,43.7831341 C33.7988429,42.9985539 34.4419263,41.9996758 34.9517374,40.7879144 C35.4598709,39.5761529 35.7846107,38.1739044 35.9238598,36.5805796 C36.1844277,33.4627692 35.7351186,31.0618784 34.5776103,29.3788502 Z M13.9506012,14.3695106 C14.0903746,14.3695106 14.4845293,14.3638526 15.1331701,14.3525365 C15.7821255,14.3409847 16.3207722,14.3299044 16.749844,14.3185884 C17.1790206,14.307508 17.7578272,14.3355624 18.4865782,14.4028694 C19.2150147,14.4701764 19.8286335,14.5601155 20.3274347,14.6720974 C20.826236,14.7840792 21.3755779,14.9692618 21.9737829,15.2272916 C22.5730364,15.4850856 23.0517053,15.799342 23.4105234,16.1694715 C23.7700755,16.5396009 24.0743684,17.0109856 24.323402,17.5831539 C24.5731696,18.1552043 24.6979486,18.8114179 24.6979486,19.5516769 C24.6979486,20.179954 24.6082964,20.7522402 24.4288874,21.2685354 C24.2497929,21.784477 23.9796832,22.2164912 23.620865,22.5642243 C23.2619421,22.9120753 22.8920092,23.2152514 22.5127441,23.4730454 C22.1338984,23.7308394 21.6494625,23.9385363 21.0609043,24.0954287 C20.4724509,24.252557 19.9585504,24.3759727 19.519727,24.4655582 C19.0805889,24.5553794 18.5318761,24.6172641 17.8731691,24.6507408 C17.2143572,24.6842175 16.7152414,24.7070854 16.3761363,24.7181657 C16.0367165,24.729246 15.5728324,24.729246 14.9838548,24.7181657 C14.3947724,24.7070854 14.0509487,24.7011916 13.9509158,24.7011916 L13.9509158,14.3693928 L13.9506012,14.3693928 L13.9506012,14.3695106 Z M26.5396439,37.2877155 C26.3495395,37.8040107 26.1054341,38.252999 25.8062792,38.6346803 C25.5066,39.0154186 25.1122356,39.3523071 24.6235006,39.6435778 C24.1348704,39.9356736 23.6603958,40.1708355 23.2017546,40.35036 C22.7424841,40.5305919 22.1884237,40.6867771 21.540412,40.8218626 C20.8909323,40.9565944 20.3225065,41.0513664 19.8330375,41.1078288 C19.3443024,41.1640555 18.7607773,41.2087304 18.0819379,41.2426786 C17.4036228,41.2756837 16.8744132,41.2927757 16.4953578,41.2927757 C16.1160927,41.2927757 15.6370045,41.2866462 15.0581979,41.2756837 C14.4790768,41.2651928 14.1101925,41.2595348 13.9503915,41.2595348 L13.9503915,29.8839472 C14.1098779,29.8839472 14.583933,29.8729848 15.3724521,29.8501169 C16.1610761,29.8274848 16.8043692,29.8169939 17.3033802,29.8169939 C17.8022863,29.8169939 18.491087,29.8501169 19.3695728,29.9178954 C20.2472197,29.9847309 20.9857223,30.0852788 21.5849759,30.2198928 C22.1834954,30.3547425 22.8366451,30.5619678 23.5456831,30.8427476 C24.2539871,31.1230558 24.8280752,31.4651309 25.267318,31.8689728 C25.7064561,32.273522 26.0754453,32.7887563 26.374705,33.4171513 C26.6746988,34.0451927 26.8243287,34.763291 26.8243287,35.5712106 C26.8242238,36.200077 26.7295386,36.7713023 26.5396439,37.2877155 Z" id="Shape"></path>
        </g>
    </g>
</svg>