<?xml version="1.0" encoding="UTF-8"?>
<svg width="58px" height="54px" viewBox="0 0 58 54" version="1.1" xmlns="http://www.w3.org/2000/svg" xmlns:xlink="http://www.w3.org/1999/xlink">
    <!-- Generator: Sketch 50.2 (55047) - http://www.bohemiancoding.com/sketch -->
    <title>computer</title>
    <desc>Created with Sketch.</desc>
    <defs>
        <linearGradient x1="145.376099%" y1="100%" x2="145.376098%" y2="-12.9503604%" id="linearGradient-1">
            <stop stop-color="#0395BD" offset="0%"></stop>
            <stop stop-color="#01DCBD" offset="100%"></stop>
        </linearGradient>
    </defs>
    <g id="Symbols" stroke="none" stroke-width="1" fill="none" fill-rule="evenodd">
        <g id="ico/invest" transform="translate(-1.000000, -2.000000)" fill="url(#linearGradient-1)" fill-rule="nonzero">
            <g id="computer" transform="translate(1.000000, 2.000000)">
                <path d="M14.400095,7 L3.60014245,7 C1.6101933,7 0,8.62054166 0,10.6153112 L0,50.3850464 C0,52.3831541 1.6101933,54 3.60014245,54 L14.4002137,54 C16.3900441,54 18,52.3831541 18,50.3850464 L18,10.6153112 C17.9998813,8.62054166 16.3899254,7 14.400095,7 Z M5.40015432,43.153947 C4.40512039,43.153947 3.60014245,42.3455241 3.60014245,41.3456357 C3.60014245,40.3469395 4.40512039,39.5385166 5.40015432,39.5385166 C6.39495083,39.5385166 7.19992877,40.3469395 7.19992877,41.3456357 C7.19992877,42.3455241 6.39495083,43.153947 5.40015432,43.153947 Z M14.400095,21.4614834 L3.60014245,21.4614834 L3.60014245,17.8462914 L14.4002137,17.8462914 L14.4002137,21.4614834 L14.400095,21.4614834 Z M14.400095,14.2307417 L3.60014245,14.2307417 L3.60014245,10.6153112 L14.4002137,10.6153112 L14.4002137,14.2307417 L14.400095,14.2307417 Z" id="Shape"></path>
                <path d="M37.4004511,46.4994807 L37.4004511,43 L26.6001425,43 L26.6001425,46.4994807 C24.6106681,46.4994807 23,48.0652565 23,50 L41,50 C41,48.0652565 39.3900441,46.4994807 37.4004511,46.4994807 Z" id="Shape"></path>
                <path d="M54.357589,0 L10.6430116,0 C8.629487,0 7,1.62993429 7,3.63650535 L10.6430116,3.63650535 L21.571686,3.63650535 L54.3577092,3.63650535 L54.3577092,32.7271092 L21.5715659,32.7271092 L21.5715659,40 L54.357589,40 C56.3707533,40 58,38.3737829 58,36.3628951 L58,3.63638544 C58,1.62981438 56.3706331,0 54.357589,0 Z M32.5002402,38.1818073 C31.4933578,38.1818073 30.6787945,37.3691784 30.6787945,36.3628951 C30.6787945,35.3584105 31.4933578,34.5453019 32.5002402,34.5453019 C33.5072428,34.5453019 34.3218061,35.3584105 34.3218061,36.3628951 C34.3218061,37.3691784 33.5071227,38.1818073 32.5002402,38.1818073 Z" id="Shape"></path>
            </g>
        </g>
    </g>
</svg>