<?xml version="1.0" encoding="UTF-8"?>
<svg width="60px" height="60px" viewBox="0 0 60 60" version="1.1" xmlns="http://www.w3.org/2000/svg" xmlns:xlink="http://www.w3.org/1999/xlink">
    <!-- Generator: Sketch 50.2 (55047) - http://www.bohemiancoding.com/sketch -->
    <title>fail</title>
    <desc>Created with Sketch.</desc>
    <defs>
        <linearGradient x1="50%" y1="100%" x2="13.1388572%" y2="-42.3676822%" id="linearGradient-1">
            <stop stop-color="#F5515F" offset="0%"></stop>
            <stop stop-color="#9F041B" offset="100%"></stop>
        </linearGradient>
    </defs>
    <g id="Symbols" stroke="none" stroke-width="1" fill="none" fill-rule="evenodd">
        <g id="ico/link-copy" fill="url(#linearGradient-1)">
            <g id="fail" transform="translate(5.000000, 5.000000)">
                <path d="M42.6875,7.929375 C32.9219804,-1.82701189 17.0971084,-1.82207647 7.33767636,7.94039982 C-2.42175571,17.7028761 -2.42175571,33.5277489 7.33767636,43.2902252 C17.0971084,53.0527015 32.9219804,53.0576369 42.6875,43.30125 C52.4371638,33.5261234 52.4371638,17.7045016 42.6875,7.929375 Z M25,42.29 C24.154958,42.298869 23.3881912,41.7966213 23.058702,41.0184109 C22.7292128,40.2402004 22.9022176,39.3400597 23.496715,38.7394371 C24.0912125,38.1388146 24.9895326,37.9565925 25.7710795,38.2780877 C26.5526263,38.599583 27.0627069,39.3611615 27.0625,40.20625 C27.0558506,41.3460554 26.1396774,42.271668 25,42.29 Z M27.0625,31.868125 C27.0625,33.0244712 26.1250962,33.961875 24.96875,33.961875 C23.8124038,33.961875 22.875,33.0244712 22.875,31.868125 L22.875,11.025 C22.875,9.86865381 23.8124038,8.93125 24.96875,8.93125 C26.1250962,8.93125 27.0625,9.86865381 27.0625,11.025 L27.0625,31.868125 Z" id="Forma_1"></path>
            </g>
        </g>
    </g>
</svg>