<?xml version="1.0" encoding="UTF-8"?>
<svg width="51px" height="51px" viewBox="0 0 51 51" version="1.1" xmlns="http://www.w3.org/2000/svg" xmlns:xlink="http://www.w3.org/1999/xlink">
    <!-- Generator: Sketch 50.2 (55047) - http://www.bohemiancoding.com/sketch -->
    <title>link</title>
    <desc>Created with Sketch.</desc>
    <defs>
        <linearGradient x1="100%" y1="100%" x2="100%" y2="-47.5233637%" id="linearGradient-1">
            <stop stop-color="#0395BD" offset="0%"></stop>
            <stop stop-color="#01DCBD" offset="100%"></stop>
        </linearGradient>
    </defs>
    <g id="Symbols" stroke="none" stroke-width="1" fill="none" fill-rule="evenodd">
        <g id="ico/link" transform="translate(-5.000000, -4.000000)" fill="url(#linearGradient-1)" fill-rule="nonzero">
            <g id="link" transform="translate(5.000000, 4.000000)">
                <path d="M31.9795243,20.4234262 C31.3585925,19.826358 30.6701014,19.2970985 29.9268463,18.8453345 C27.958208,17.6403371 25.6695841,17.0000202 23.3319285,17.0000202 C20.0873399,16.9942472 16.9745944,18.2265442 14.6843327,20.4234262 L3.57348229,31.0525503 C1.28711037,33.2422894 0.00204978466,36.2091369 2.53186052e-06,39.3028931 C-0.00429669901,45.7589004 5.46719113,50.9958201 12.2210781,50.9999297 C15.4606509,51.010693 18.5705303,49.7842669 20.8599731,47.5932558 L30.0316656,38.8260801 C30.198312,38.6681535 30.2913597,38.4526924 30.2900289,38.2284249 C30.2872651,37.7672675 29.8938855,37.395641 29.4114504,37.3982829 L29.0620867,37.3982829 C27.1458581,37.4047409 25.246724,37.0529776 23.4717559,36.3629539 C23.1447072,36.2342838 22.7688316,36.306887 22.5196809,36.5466144 L15.9247631,42.8589809 C13.8768962,44.8165269 10.5566616,44.8165269 8.50879461,42.8589809 C6.46092764,40.901435 6.46092764,37.7276391 8.50879461,35.7700932 L19.6633538,25.1159199 C21.709583,23.1623858 25.0243924,23.1623858 27.0706216,25.1159199 C28.449651,26.356534 30.6006996,26.356534 31.9796267,25.1159199 C32.5729205,24.548304 32.9326229,23.795462 32.9929144,22.9950658 C33.0566864,22.0386021 32.6876691,21.1019038 31.9795243,20.4234262 Z" id="Shape"></path>
                <path d="M47.4199599,3.42392104 C42.646522,-1.14130701 34.9072442,-1.14130701 30.1338063,3.42392104 L20.9756029,12.1742432 C20.7241271,12.4159242 20.6515899,12.7794243 20.7922649,13.0927291 C20.9313031,13.4069144 21.2562369,13.6085763 21.6128866,13.6020205 L21.9358766,13.6020205 C23.848853,13.5986937 25.7439254,13.9531919 27.5145898,14.64575 C27.8414675,14.7744183 28.2171467,14.7018161 28.4661672,14.462092 L35.0401438,8.18317888 C37.0869406,6.22566012 40.4054401,6.22566012 42.4522369,8.18317888 C44.4990338,10.1406976 44.4990338,13.3144494 42.4522369,15.2719682 L34.2631058,23.0954875 L34.1932287,23.1706337 L31.3296979,25.8926278 C29.2845381,27.8461348 25.9714609,27.8461348 23.9263011,25.8926278 C22.5479922,24.6520309 20.3980678,24.6520309 19.0198613,25.8926278 C18.423092,26.464541 18.0632707,27.2239284 18.007103,28.0300864 C17.9432621,28.9865367 18.3120866,29.9232221 19.0198613,30.6017881 C20.0303687,31.5723284 21.2126532,32.3638094 22.5119794,32.9396366 C22.6953174,33.0230997 22.8786554,33.0899289 23.0619934,33.1650751 C23.2453314,33.2402213 23.4373657,33.2986357 23.6207036,33.3654649 C23.8040416,33.4322941 23.9960759,33.4907085 24.1794139,33.540806 L24.6945405,33.6743666 C25.0437216,33.7578297 25.393005,33.8246589 25.7508824,33.8830733 C26.1820132,33.9443253 26.6162132,33.9833661 27.0517432,34 L27.6628358,34 L27.7152181,34 L28.2390409,33.9415856 C28.4310752,33.9332686 28.631908,33.8914881 28.858932,33.8914881 L29.1557309,33.8914881 L29.7581271,33.808025 L30.0375334,33.7579276 L30.5438614,33.6577327 L30.6399297,33.6577327 C32.7844317,33.1425704 34.7426288,32.0806414 36.3059126,30.5850564 L47.419653,19.9560798 C52.1933978,15.3908518 52.1933978,7.9891491 47.4199599,3.42392104 Z" id="Shape"></path>
            </g>
        </g>
    </g>
</svg>