<?xml version="1.0" encoding="UTF-8"?>
<svg width="60px" height="60px" viewBox="0 0 60 60" version="1.1" xmlns="http://www.w3.org/2000/svg" xmlns:xlink="http://www.w3.org/1999/xlink">
    <!-- Generator: Sketch 50.2 (55047) - http://www.bohemiancoding.com/sketch -->
    <title>ok</title>
    <desc>Created with Sketch.</desc>
    <defs>
        <linearGradient x1="50%" y1="0%" x2="50%" y2="100%" id="linearGradient-1">
            <stop stop-color="#0395BD" offset="0%"></stop>
            <stop stop-color="#01DCBD" offset="100%"></stop>
        </linearGradient>
    </defs>
    <g id="Symbols" stroke="none" stroke-width="1" fill="none" fill-rule="evenodd">
        <g id="ico/part1-copy-4" fill="url(#linearGradient-1)">
            <g id="ok" transform="translate(5.000000, 5.000000)">
                <path d="M42.6875,7.93 C32.9220716,-1.82664096 17.0970388,-1.82189207 7.33746777,7.94060809 C-2.42210323,17.7031082 -2.42210323,33.5281418 7.33746777,43.2906419 C17.0970388,53.0531421 32.9220716,53.057891 42.6875,43.30125 C52.4374355,33.5264797 52.4374355,17.7047703 42.6875,7.93 Z M38.9375,19.810625 L24.1875,34.549375 C23.4495475,35.3611694 22.1960801,35.4288566 21.375,34.70125 C21.0844437,34.4308071 20.9249376,34.0479924 20.9375,33.65125 C20.6770314,33.7110562 20.4034275,33.6549674 20.1875,33.4975 L12.875,26.128125 C12.4375,25.72125 12.6875,24.800625 13.4375,24.069375 C14.1875,23.338125 15.0625,23.0775 15.5,23.484375 L22.75,30.711875 L36.25,17.1675 C36.9879321,16.3558494 38.2411334,16.287898 39.0625,17.015 C39.420406,17.4008715 39.608677,17.9141205 39.5851839,18.4398976 C39.5616907,18.9656748 39.3283946,19.460087 38.9375,19.8125 L38.9375,19.810625 Z" id="Forma_1_копия_3"></path>
            </g>
        </g>
    </g>
</svg>