<?xml version="1.0" encoding="UTF-8"?>
<svg width="55px" height="55px" viewBox="0 0 55 55" version="1.1" xmlns="http://www.w3.org/2000/svg" xmlns:xlink="http://www.w3.org/1999/xlink">
    <!-- Generator: Sketch 50.2 (55047) - http://www.bohemiancoding.com/sketch -->
    <title>Allpartners</title>
    <desc>Created with Sketch.</desc>
    <defs>
        <linearGradient x1="50%" y1="100%" x2="50%" y2="0%" id="linearGradient-1">
            <stop stop-color="#0395BD" offset="0%"></stop>
            <stop stop-color="#01DCBD" offset="100%"></stop>
        </linearGradient>
    </defs>
    <g id="Symbols" stroke="none" stroke-width="1" fill="none" fill-rule="evenodd">
        <g id="ico/part1" transform="translate(-3.000000, -3.000000)" fill="url(#linearGradient-1)">
            <g id="Allpartners" transform="translate(2.000000, 3.000000)">
                <path d="M28.474,0.01 C32.1902462,0.0738180881 35.1570003,3.12746867 35.1135362,6.84400862 C35.070072,10.5605486 32.0327155,13.5439824 28.3159932,13.5208735 C24.599271,13.4977646 21.599247,10.4767931 21.602,6.76 C21.6382867,2.9994923 24.7134456,-0.0210726969 28.474,0.01 Z M38.768,31.87 L37.209,19.93 C37.0213337,18.1886842 35.5433238,16.8737442 33.792,16.89 L31.91,16.89 C31.4545324,16.8894941 31.0173713,17.0692478 30.694,17.39 L28.474,19.57 L26.254,17.39 C25.930506,17.0694327 25.4934247,16.8897118 25.038,16.89 L23.158,16.89 C21.4202511,16.8702776 19.9473423,18.1641946 19.743,19.89 L18.179,31.87 C18.1177772,32.3527236 18.2696246,32.8381974 18.595,33.2 C18.9252641,33.5629899 19.3932495,33.7699346 19.884,33.77 L21.738,33.77 L23.175,50.99 C23.3605097,52.7332325 24.8410346,54.0496395 26.594,54.03 L30.356,54.03 C32.1185341,54.044508 33.601852,52.7137699 33.778,50.96 L35.211,33.77 L37.063,33.77 C37.5535341,33.7702766 38.0213431,33.5632493 38.351,33.2 C38.680235,32.8403732 38.8329727,32.3532242 38.768,31.87 Z M45.654,0.01 C49.3702462,0.0738180881 52.3370003,3.12746867 52.2935362,6.84400862 C52.250072,10.5605486 49.2127155,13.5439824 45.4959932,13.5208735 C41.779271,13.4977646 38.779247,10.4767931 38.782,6.76 C38.8182867,2.9994923 41.8934456,-0.0210726969 45.654,0.01 Z M11.294,0.01 C7.57775383,0.0738180881 4.61099966,3.12746867 4.65446381,6.84400862 C4.69792795,10.5605486 7.73528454,13.5439824 11.4520068,13.5208735 C15.168729,13.4977646 18.168753,10.4767931 18.166,6.76 C18.1275208,3.00042485 15.0536613,-0.018863796 11.294,0.01 Z M55.948,31.87 L54.388,19.93 C54.2026321,18.1883084 52.7244401,16.8724361 50.973,16.89 L49.09,16.89 C48.6342719,16.8896652 48.1968623,17.0693734 47.873,17.39 L45.654,19.57 L43.434,17.39 C43.1113663,17.0699799 42.6754285,16.8902858 42.221,16.89 L40.338,16.89 C40.1328394,16.9112118 39.9295875,16.9479843 39.73,17 C40.2007961,17.7754798 40.5049203,18.640514 40.623,19.54 L42.18,31.44 C42.486781,33.6420887 41.2700118,35.7741048 39.218,36.63 L40.359,47.61 C40.5444745,49.3528471 42.0244159,50.6691203 43.777,50.65 L47.538,50.65 C49.3005341,50.664508 50.783852,49.3337699 50.96,47.58 L52.39,33.77 L54.242,33.77 C54.732698,33.769686 55.2005874,33.5627838 55.531,33.2 C55.860235,32.8403732 56.0129727,32.3532242 55.948,31.87 Z M16.015,35.43 C15.0408779,34.3476306 14.587009,32.8943738 14.772,31.45 L16.334,19.46 C16.4411485,18.5884575 16.7329751,17.7497969 17.19,17 C17.0009097,16.9479967 16.8079602,16.9112126 16.613,16.89 L14.73,16.89 C14.2743573,16.8900985 13.8371061,17.0697415 13.513,17.39 L11.294,19.57 L9.074,17.39 C8.75173471,17.0700394 8.31612512,16.8903324 7.862,16.89 L5.979,16.89 C4.24087075,16.8697627 2.76738184,18.1638103 2.563,19.89 L1,31.87 C0.937685758,32.3528198 1.08967289,32.8387402 1.416,33.2 C1.74610393,33.5626296 2.21362403,33.769529 2.704,33.77 L4.56,33.77 L5.996,47.61 C6.18147448,49.3528471 7.66141588,50.6691203 9.414,50.65 L13.177,50.65 C14.9395588,50.6640824 16.4229168,49.333697 16.6,47.58 L17.74,36.63 C17.0886104,36.352856 16.5013788,35.9443471 16.015,35.43 Z"></path>
            </g>
        </g>
    </g>
</svg>