<?xml version="1.0" encoding="UTF-8"?>
<svg width="29px" height="62px" viewBox="0 0 29 62" version="1.1" xmlns="http://www.w3.org/2000/svg" xmlns:xlink="http://www.w3.org/1999/xlink">
    <!-- Generator: Sketch 50.2 (55047) - http://www.bohemiancoding.com/sketch -->
    <title>usd</title>
    <desc>Created with Sketch.</desc>
    <defs>
        <linearGradient x1="50%" y1="0%" x2="50%" y2="100%" id="linearGradient-1">
            <stop stop-color="#0395BD" offset="0%"></stop>
            <stop stop-color="#01DCBD" offset="100%"></stop>
        </linearGradient>
    </defs>
    <g id="Symbols" stroke="none" stroke-width="1" fill="none" fill-rule="evenodd">
        <g id="dollar" fill="url(#linearGradient-1)" fill-rule="nonzero">
            <path d="M22.2838101,28.1640044 C20.087541,26.8194737 17.7525602,25.7950694 15.440698,24.7322499 C14.099818,24.1176074 12.8167345,23.4005244 11.683922,22.4017302 C9.45297499,20.4297519 9.88066949,17.2284884 12.4930738,15.9607881 C13.2328697,15.6022466 14.0073435,15.4870011 14.7933766,15.4357809 C17.8219161,15.2565102 20.7001845,15.8711527 23.4397412,17.3309289 C24.8037399,18.0608169 25.254553,17.830326 25.7169255,16.2553044 C26.2024165,14.5906474 26.6069924,12.9003803 27.0578055,11.2229182 C27.3583476,10.0960735 26.9884497,9.35338038 26.0290268,8.87959339 C24.2720116,8.02165479 22.4687591,7.40701221 20.5730321,7.07408081 C18.0993396,6.65151404 18.0993396,6.63870898 18.0877802,3.88562242 C18.0762209,0.005691135 18.0762209,0.005691135 14.5621904,0.005691135 C14.0535807,0.005691135 13.5449711,-0.00711391876 13.0363614,0.005691135 C11.3949392,0.05691135 11.1175158,0.377037694 11.0712785,2.20816038 C11.0481599,3.02768382 11.0712785,3.84720726 11.0597192,4.67953576 C11.0481599,7.11249597 11.0366006,7.07408081 8.93280599,7.91921436 C3.84670919,9.96802296 0.702576617,13.8095391 0.367356601,19.9559649 C0.0668145168,25.3981127 2.63298154,29.0731632 6.66718105,31.7494194 C9.1524329,33.4012713 11.9035489,34.3744554 14.5390718,35.6677659 C15.5678505,36.167163 16.5503919,36.7433904 17.4057809,37.5373037 C19.93727,39.8550184 19.4748976,43.7093396 16.4694767,45.1691157 C14.8627325,45.950224 13.1635138,46.1422998 11.4180578,45.8990038 C8.7247384,45.5276573 6.14701206,44.746549 3.71955677,43.3507981 C2.29776152,42.5312747 1.88162633,42.7489606 1.39613527,44.4520327 C0.98000008,45.9246139 0.61010213,47.4100002 0.240204181,48.8953864 C-0.256846189,50.8929748 -0.0718972143,51.3667618 1.65044011,52.3015307 C3.84670919,53.4795956 6.19324931,54.0814332 8.58602667,54.5039999 C10.458635,54.8369313 10.5164316,54.9265667 10.5395502,57.0778157 C10.5511095,58.0509998 10.5511095,59.036989 10.5626688,60.0101731 C10.5742281,61.2394582 11.1059564,61.9565412 12.2503282,61.9821513 C13.5449711,62.0077614 14.8511732,62.0077614 16.145816,61.9693463 C17.2092726,61.9437362 17.7525602,61.3034835 17.7525602,60.1126135 C17.7525602,58.7808879 17.8103568,57.4363572 17.7641195,56.1046317 C17.706323,54.747296 18.2380513,54.0558231 19.417101,53.6972815 C22.1335391,52.8777581 24.4454013,51.2643213 26.2255351,48.8569712 C31.1729202,42.1983433 29.2887525,32.4536974 22.2838101,28.1640044 Z" id="Shape"></path>
        </g>
    </g>
</svg>