<svg xmlns="http://www.w3.org/2000/svg" xmlns:xlink="http://www.w3.org/1999/xlink" width="155" height="33" viewBox="0 0 155 33">
  <metadata><?xpacket begin="﻿" id="W5M0MpCehiHzreSzNTczkc9d"?>
<x:xmpmeta xmlns:x="adobe:ns:meta/" x:xmptk="Adobe XMP Core 5.6-c138 79.159824, 2016/09/14-01:09:01        ">
   <rdf:RDF xmlns:rdf="http://www.w3.org/1999/02/22-rdf-syntax-ns#">
      <rdf:Description rdf:about=""/>
   </rdf:RDF>
</x:xmpmeta>
                                                                                                    
                                                                                                    
                                                                                                    
                                                                                                    
                                                                                                    
                                                                                                    
                                                                                                    
                                                                                                    
                                                                                                    
                                                                                                    
                                                                                                    
                                                                                                    
                                                                                                    
                                                                                                    
                                                                                                    
                                                                                                    
                                                                                                    
                                                                                                    
                                                                                                    
                                                                                                    
                           
<?xpacket end="w"?></metadata>
<defs>
    <style>
      .cls-1 {
        fill-rule: evenodd;
        fill: url(#linear-gradient);
      }
    </style>
    <linearGradient id="linear-gradient" x1="696.25" y1="355" x2="696.25" y2="322" gradientUnits="userSpaceOnUse">
      <stop offset="0" stop-color="#0392be"/>
      <stop offset="1" stop-color="#01dbbd"/>
    </linearGradient>
  </defs>
  <path id="Прямоугольник_1_копия_2" data-name="Прямоугольник 1 копия 2" class="cls-1" d="M620.467,327.818q-0.312,2.163-.576,4.842t-0.467,5.578q-0.2,2.9-.374,5.814t-0.3,5.484h4.735q0.094-3.165.25-6.895t0.467-7.521q0.563,1.317,1.25,2.915t1.36,3.2q0.67,1.6,1.3,3.056t1.063,2.491h3.395q0.438-1.034,1.063-2.491t1.3-3.056q0.672-1.6,1.36-3.2t1.25-2.915q0.31,3.792.467,7.521t0.249,6.895h4.737q-0.126-2.57-.3-5.484t-0.375-5.814q-0.2-2.9-.467-5.578t-0.576-4.842h-4.424q-0.562,1.035-1.3,2.554t-1.531,3.291q-0.8,1.77-1.577,3.62t-1.468,3.478q-0.688-1.629-1.468-3.478t-1.578-3.62q-0.8-1.77-1.531-3.291t-1.3-2.554h-4.643Zm43.4,21.718v-4.105H653.43V340.2h8.63v-4.012h-8.63v-4.262h9.721v-4.105H648.57v21.718h15.3Zm20.406-21.718H668.135v4.105h9.69q-1.216,1.475-2.633,3.338t-2.788,3.855q-1.371,1.99-2.633,3.948t-2.135,3.557v2.915h16.981v-4.105h-11q1.122-1.881,2.556-3.949t2.9-4.012q1.464-1.942,2.836-3.588t2.369-2.679v-3.385Zm20.656,0H688.791v4.105h9.69q-1.216,1.475-2.633,3.338t-2.789,3.855q-1.371,1.99-2.633,3.948t-2.134,3.557v2.915h16.98v-4.105h-11q1.122-1.881,2.556-3.949t2.9-4.012q1.465-1.942,2.836-3.588t2.37-2.679v-3.385Zm16,2.664q-1.491,5.053-3.026,9.109t-2.864,7.532q-0.579-1.881-1.148-4.091t-1.12-4.685q-0.549-2.476-1.041-5.125t-0.975-5.4h-2.181q0.565,3.353,1.116,6.281t1.161,5.577q0.611,2.647,1.313,5.078t1.547,4.782h2.233q0.765-1.773,1.5-3.559t1.449-3.683q0.717-1.9,1.443-3.966t1.468-4.4q0.729,2.319,1.451,4.387t1.441,3.961q0.72,1.895,1.453,3.681t1.465,3.578h2.28q0.815-2.349,1.5-4.776t1.32-5.074q0.628-2.647,1.2-5.579t1.144-6.289H732.97q-1.007,5.583-2.1,10.6t-2.158,8.71q-1.453-3.414-2.949-7.509t-3-9.132H720.93Zm35.937,19.054q-1.3-3.387-2.386-6.32t-2.138-5.545q-1.056-2.613-2.081-5.027t-2.168-4.826h-1.868q-1.143,2.424-2.18,4.832t-2.089,5.024q-1.052,2.613-2.146,5.542t-2.324,6.32H739.7q0.577-1.591,1.094-3.069t1.058-2.885H752.4q0.471,1.4.991,2.877t1.137,3.077h2.338Zm-7.463-13.79q1.132,2.79,2.329,6.018h-9.216q1.189-3.224,2.3-6.01t2.284-5.491Q748.27,332.957,749.4,335.746Zm16.872,13.79v-8.994q2.149-3.321,3.988-6.535t3.489-6.189h-2.305q-1.344,2.759-2.936,5.594t-3.248,5.406q-1.719-2.569-3.295-5.406t-2.89-5.594h-2.461q1.6,3.009,3.457,6.189t4.082,6.6v8.932h2.119Zm-92.622-.846h4.751V355h-4.751v-6.31Zm0-26.69h4.751v6.31h-4.751V322Zm20.791,26.69h4.775V355h-4.775v-6.31Zm0-26.69h4.775v6.31h-4.775V322Z" transform="translate(-618.75 -322)"/>
</svg>
