<svg 
 xmlns="http://www.w3.org/2000/svg"
 xmlns:xlink="http://www.w3.org/1999/xlink"
 width="40px" height="40px">
<defs>
<linearGradient id="PSgrad_0" x1="0%" x2="0%" y1="100%" y2="0%">
  <stop offset="0%" stop-color="rgb(1,218,189)" stop-opacity="1" />
  <stop offset="100%" stop-color="rgb(3,150,189)" stop-opacity="1" />
</linearGradient>

</defs>
<path fill-rule="evenodd"  fill="url(#PSgrad_0)"
 d="M37.320,10.001 C31.798,0.435 19.565,-2.843 10.000,2.681 C0.434,8.203 -2.844,20.435 2.681,30.000 C8.202,39.565 20.434,42.844 30.000,37.320 C39.565,31.797 42.844,19.565 37.320,10.001 ZM27.999,33.855 C20.348,38.274 10.562,35.652 6.144,28.000 C1.725,20.348 4.348,10.561 12.000,6.145 C19.652,1.725 29.438,4.348 33.856,12.001 C38.274,19.653 35.652,29.437 27.999,33.855 ZM27.200,19.187 L16.727,13.079 C15.773,12.522 15.003,12.968 15.008,14.072 L15.062,26.195 C15.067,27.299 15.846,27.748 16.803,27.195 L27.197,21.195 C28.152,20.644 28.154,19.745 27.200,19.187 Z"/>
</svg>